<?xml version="1.0" standalone="no"?>
<!DOCTYPE svg PUBLIC "-//W3C//DTD SVG 20010904//EN"
 "http://www.w3.org/TR/2001/REC-SVG-20010904/DTD/svg10.dtd">
<svg version="1.0" xmlns="http://www.w3.org/2000/svg"
 width="612.000000pt" height="344.000000pt" viewBox="0 0 612.000000 344.000000"
 preserveAspectRatio="xMidYMid meet">

<g transform="translate(0.000000,344.000000) scale(0.100000,-0.100000)"
fill="#000000" stroke="none">
<path d="M0 1720 l0 -1720 2478 0 c2337 1 2476 2 2454 18 -12 9 -50 39 -82 66
-47 39 -58 52 -49 63 6 7 16 13 22 13 6 0 37 18 69 40 85 60 312 148 282 109
-6 -8 -10 -24 -9 -36 1 -14 -5 -23 -17 -26 -13 -4 -16 -10 -11 -24 7 -17 8
-17 11 0 2 9 10 17 18 17 8 0 13 -5 11 -11 -4 -19 21 -21 26 -2 4 17 5 17 6 1
1 -14 10 -18 35 -18 19 0 37 -4 41 -10 3 -5 12 -7 20 -3 11 4 15 -2 15 -21 0
-18 -4 -24 -15 -20 -8 4 -15 1 -15 -5 0 -6 -3 -10 -7 -10 -25 4 -44 -3 -40
-13 2 -7 -3 -21 -12 -31 -15 -18 -14 -20 9 -39 26 -21 38 -21 144 2 53 12 60
12 71 -3 7 -10 20 -17 29 -17 13 0 16 -5 11 -20 -6 -20 -2 -20 309 -20 282 0
316 2 316 16 0 9 -10 25 -22 36 l-23 20 23 -5 c22 -5 23 -4 21 79 -2 47 -6 87
-11 90 -4 3 -8 13 -7 22 0 14 2 13 9 -3 6 -15 9 -6 9 32 1 28 -3 55 -9 58 -6
3 -10 12 -10 18 0 8 3 7 9 -2 5 -8 9 80 10 218 0 226 0 232 -19 226 -11 -4
-20 -2 -20 3 0 6 6 12 13 15 6 2 -13 8 -43 12 l-55 9 65 6 65 7 -55 3 c-30 3
-82 5 -115 6 -33 1 -76 5 -95 8 l-35 7 28 -16 c16 -9 26 -19 23 -22 -3 -3 -16
1 -28 9 -13 9 -38 14 -58 12 l-35 -4 35 15 c29 12 31 14 10 13 -14 -2 -26 2
-28 7 -5 16 -44 27 -56 15 -5 -5 -21 -10 -36 -9 l-25 1 28 12 c15 7 25 15 21
19 -4 3 11 4 32 1 l39 -5 -29 17 c-23 13 -26 18 -15 26 11 8 10 9 -4 4 -17 -6
-80 21 -150 64 -23 15 -26 19 -12 17 12 -1 34 -12 50 -23 17 -12 41 -26 55
-33 l25 -12 -25 18 c-13 10 -46 37 -73 60 -50 45 -73 57 -42 23 29 -32 0 -24
-61 16 -72 48 -78 61 -13 29 30 -14 46 -19 35 -11 -10 8 -20 23 -21 33 -1 10
-20 56 -42 103 -23 47 -49 116 -57 154 -19 78 -15 102 4 29 35 -136 107 -279
166 -329 26 -21 51 -39 55 -39 5 0 14 -7 21 -15 7 -9 22 -23 33 -30 11 -8 -8
15 -42 52 -59 64 -120 154 -111 163 2 2 23 -21 47 -51 24 -30 60 -74 81 -97
21 -23 62 -68 91 -100 28 -31 56 -57 62 -57 5 0 -14 21 -42 46 -29 26 -49 49
-47 52 3 3 29 -13 58 -36 50 -38 136 -82 161 -82 7 0 -18 19 -55 41 -38 23
-68 46 -68 52 0 7 4 7 12 -1 7 -7 20 -12 31 -12 10 0 16 -4 13 -8 -3 -5 8 -9
25 -9 l30 0 -37 38 c-21 21 -35 42 -31 45 3 4 23 -10 44 -31 21 -21 62 -56 91
-77 l53 -39 -36 48 c-19 26 -42 55 -49 63 -8 9 -20 29 -26 45 -12 33 -9 30 39
-33 31 -40 76 -70 129 -86 22 -7 22 -7 22 98 l0 106 -44 0 c-25 0 -48 5 -52
11 -5 9 7 10 44 5 l51 -7 1 377 c0 342 -1 374 -16 360 -8 -9 -23 -16 -32 -16
-12 0 -13 3 -5 8 9 5 1 12 -23 21 -27 10 -33 16 -23 22 8 5 22 6 32 3 9 -3 17
0 17 6 0 6 10 8 25 4 l26 -6 -3 78 c-3 75 -4 79 -26 78 -12 -1 -21 1 -18 3 2
3 -3 12 -13 22 -18 18 -127 48 -138 38 -3 -4 18 -29 47 -57 29 -27 49 -50 43
-50 -5 0 -15 6 -22 13 -34 30 4 -22 54 -77 14 -15 24 -30 21 -33 -7 -7 -63 34
-81 60 -8 12 -15 16 -15 9 0 -22 -33 -9 -62 24 -26 29 -30 64 -8 64 4 0 4 15
0 34 -7 33 -7 33 26 29 26 -4 34 -1 34 11 0 9 8 16 20 16 11 0 20 5 20 10 0
14 26 12 39 -3 6 -8 21 -13 33 -11 13 1 29 3 36 3 11 1 12 14 8 59 -12 114
-12 132 -4 132 4 0 8 18 8 40 0 31 -3 38 -15 34 -8 -4 -30 -3 -49 0 -41 8 -56
48 -25 70 18 12 18 14 -6 42 -30 35 -18 53 19 29 23 -15 26 -15 26 -2 0 9 8
20 17 25 15 9 14 11 -5 23 -12 8 -22 19 -22 25 0 6 -7 17 -15 24 -12 10 -15
10 -15 -4 0 -30 -16 -16 -26 21 -7 31 -15 39 -39 44 l-30 6 33 8 c37 9 45 40
12 50 -27 9 -39 -1 -62 -49 -37 -78 -45 -89 -54 -74 -11 17 -11 37 -2 65 4 14
3 23 -5 27 -9 3 -8 7 2 14 11 8 9 15 -13 37 -21 21 -24 30 -16 46 6 10 14 19
18 19 4 0 29 18 56 40 42 35 55 40 90 38 83 -4 126 1 126 17 0 8 -5 15 -11 15
-5 0 -8 4 -5 9 3 5 -6 12 -19 15 -15 4 -23 11 -19 17 4 6 1 14 -5 18 -7 5 2
15 24 27 42 22 44 34 8 56 l-28 17 25 1 c22 0 25 5 28 36 1 20 -3 43 -9 50 -8
10 -8 14 0 14 7 0 11 26 11 75 l0 75 -90 0 -90 0 0 -26 c0 -15 15 -47 33 -73
42 -58 56 -81 36 -63 -19 17 -29 15 -23 -5 4 -15 3 -15 -8 1 -18 27 -59 66
-69 66 -5 0 -9 -8 -9 -17 -1 -16 -2 -16 -15 2 -11 14 -13 32 -9 67 l7 48 -31
0 c-33 0 -65 -32 -55 -56 3 -8 1 -14 -4 -14 -12 0 -12 -37 -1 -85 6 -22 11
-51 13 -65 6 -69 18 -129 26 -125 4 3 11 0 15 -6 4 -8 3 -9 -4 -5 -7 4 -12 1
-12 -8 0 -30 -17 -16 -38 32 -12 26 -20 60 -18 75 2 16 -3 35 -11 43 -9 8 -13
25 -10 39 3 18 0 25 -12 25 -14 0 -14 2 -1 11 11 8 12 12 3 16 -21 8 -15 29
22 77 l34 45 -376 1 c-293 0 -374 -3 -365 -12 7 -7 12 -32 12 -57 0 -32 -3
-42 -11 -34 -6 6 -9 21 -7 34 2 13 -6 34 -16 47 l-20 22 -2508 0 -2508 0 0
-1720z m5615 1652 c17 -31 35 -60 40 -64 6 -4 1 -8 -10 -8 -11 0 -15 -4 -10
-8 6 -4 11 -18 11 -32 1 -14 8 -50 17 -80 11 -41 12 -57 4 -62 -33 -21 -46 -2
-48 65 l-1 42 -9 -44 c-10 -54 -19 -64 -19 -23 0 28 -4 32 -40 42 -31 8 -40
16 -41 33 -1 17 -2 18 -6 5 -6 -25 -23 -22 -23 3 0 19 -4 21 -30 15 -31 -6
-75 19 -64 36 3 4 3 8 0 8 -6 0 -32 -58 -39 -86 -2 -12 4 -32 14 -45 10 -13
19 -27 19 -31 0 -4 11 -24 25 -44 14 -20 30 -54 36 -75 9 -28 20 -41 40 -48
35 -12 30 -36 -9 -44 -31 -7 -49 11 -87 88 -23 46 -37 105 -37 148 1 9 -3 15
-9 12 -5 -4 -9 4 -9 17 0 19 -2 20 -11 8 -8 -11 -9 -3 -6 33 5 49 -1 59 -36
61 -21 1 -65 51 -54 62 3 4 18 -2 33 -12 59 -42 67 -44 87 -27 10 9 15 23 12
30 -2 8 0 11 5 8 5 -3 25 5 42 18 36 27 67 39 111 42 15 2 31 6 34 9 18 18 41
1 68 -52z m480 -39 c5 -28 1 -38 -32 -75 -22 -24 -56 -64 -77 -90 -21 -27 -42
-48 -47 -48 -9 0 3 15 78 102 68 77 75 91 63 122 -12 34 -13 43 -1 31 5 -6 12
-24 16 -42z m-911 26 c23 -11 26 -39 4 -39 -5 0 -6 5 -3 10 3 6 -2 10 -12 10
-11 0 -28 7 -39 15 -19 14 -18 14 3 15 12 0 33 -5 47 -11z m-32 -96 c-8 -13
-7 -22 5 -35 14 -16 14 -18 1 -18 -8 0 -29 7 -46 16 -18 8 -41 13 -52 9 -11
-4 -20 -2 -20 4 0 6 17 11 38 11 26 0 45 7 57 20 21 24 31 19 17 -7z m565 -15
c-3 -7 -5 -2 -5 12 0 14 2 19 5 13 2 -7 2 -19 0 -25z m-2787 -12 c-4 -4 -16
-4 -26 2 -16 9 -14 10 8 9 15 -1 23 -6 18 -11z m1990 -10 c0 -17 -29 -66 -34
-58 -10 17 4 62 20 62 8 0 14 -2 14 -4z m85 -25 c-6 -20 -45 -30 -45 -12 0 9
43 41 48 36 2 -2 1 -13 -3 -24z m240 19 c9 -15 -22 -60 -40 -60 -18 0 -19 11
-3 45 12 26 32 33 43 15z m610 -20 c16 13 35 5 35 -13 0 -7 -4 -6 -10 3 -7 12
-12 12 -22 2 -11 -11 -9 -20 9 -53 12 -21 16 -36 10 -32 -12 8 -17 9 -37 12
-5 0 -10 6 -10 12 0 5 5 7 12 3 8 -5 9 0 4 17 -4 13 -9 35 -11 49 -3 14 -2 17
1 7 4 -14 9 -16 19 -7z m71 -38 c-4 -3 -11 0 -16 8 -15 24 -11 33 6 15 9 -9
13 -19 10 -23z m-433 -52 c6 0 8 -3 4 -6 -3 -4 1 -20 9 -36 15 -29 15 -29 -8
-17 -37 20 -70 47 -95 81 -35 48 -28 50 28 12 28 -19 56 -34 62 -34z m258 9
c5 -3 11 -25 14 -48 5 -51 -3 -47 -26 14 -10 25 -14 55 -10 72 l6 28 3 -30 c2
-16 8 -33 13 -36z m-3021 41 c0 -5 -5 -10 -11 -10 -5 0 -7 5 -4 10 3 6 8 10
11 10 2 0 4 -4 4 -10z m273 -17 c5 -29 -2 -48 -10 -25 -3 6 -14 12 -24 12 -11
0 -17 -5 -14 -10 4 -6 10 -8 15 -5 5 3 11 1 15 -5 3 -5 22 -10 42 -10 60 0 30
-11 -38 -14 -35 -2 -67 1 -70 7 -4 5 -18 10 -33 10 -14 0 -23 4 -20 9 3 5 13
8 22 7 19 -2 92 28 92 37 0 3 -11 3 -25 0 -14 -4 -25 -2 -25 4 0 5 15 10 34
10 29 0 34 -4 39 -27z m2894 5 c-3 -8 -6 -5 -6 6 -1 11 2 17 5 13 3 -3 4 -12
1 -19z m-3097 -18 c0 -13 -11 -13 -30 0 -12 8 -11 10 8 10 12 0 22 -4 22 -10z
m288 1 c11 -7 11 -9 0 -13 -8 -3 -22 0 -33 8 -18 14 -18 14 1 14 10 0 25 -4
32 -9z m2242 -1 c0 -5 -4 -10 -10 -10 -5 0 -10 5 -10 10 0 6 5 10 10 10 6 0
10 -4 10 -10z m-46 -24 c-3 -9 -10 -16 -15 -16 -5 0 -4 9 3 20 14 22 21 20 12
-4z m-221 -1 c-3 -10 0 -15 8 -13 9 2 13 -5 12 -18 -2 -15 4 -24 18 -27 19 -5
20 -7 4 -36 l-16 -31 35 0 c19 0 38 -4 41 -10 7 -11 -56 -14 -93 -4 -16 5 -22
13 -21 28 3 24 -10 86 -17 86 -3 0 -15 -5 -26 -11 -15 -8 -23 -8 -32 1 -8 9
-5 16 13 31 29 24 83 27 74 4z m852 -25 c-18 -35 -24 -38 -22 -11 0 11 4 18 8
15 4 -2 9 3 13 11 3 8 8 15 11 15 3 0 -1 -13 -10 -30z m-1132 3 c-9 -24 -55
-63 -65 -57 -5 3 -3 16 5 27 7 12 17 28 21 35 4 6 16 12 26 12 14 0 18 -5 13
-17z m-1908 -3 c20 -5 24 -8 10 -9 -17 -1 -18 -3 -5 -11 12 -8 11 -10 -7 -10
-13 0 -23 4 -23 10 0 5 -15 14 -32 19 l-33 9 30 0 c17 0 44 -4 60 -8z m2060 0
c3 -5 2 -10 -4 -10 -5 0 -13 5 -16 10 -3 6 -2 10 4 10 5 0 13 -4 16 -10z
m-1898 -16 c-3 -3 -12 -4 -19 -1 -8 3 -5 6 6 6 11 1 17 -2 13 -5z m-87 -26 c0
-18 -2 -20 -9 -8 -6 8 -7 18 -5 22 9 14 14 9 14 -14z m250 12 c0 -5 -6 -10
-14 -10 -8 0 -18 5 -21 10 -3 6 3 10 14 10 12 0 21 -4 21 -10z m33 -8 c-21
-22 -26 -21 -17 2 3 9 12 16 20 16 11 0 10 -4 -3 -18z m1707 -21 c-12 -24 -30
-28 -30 -7 0 19 33 52 38 38 2 -6 -2 -20 -8 -31z m-1920 13 c0 -2 -12 -4 -26
-4 -14 0 -23 4 -20 9 6 8 46 4 46 -5z m2140 8 c0 -5 -10 -17 -22 -28 -12 -10
-19 -14 -16 -9 3 6 8 18 11 28 6 17 27 24 27 9z m-2270 -19 c0 -19 -40 -37
-53 -24 -8 8 -6 11 8 11 18 0 18 0 -1 15 -18 14 -17 15 14 13 18 -1 32 -8 32
-15z m305 -3 c3 -6 -1 -7 -9 -4 -18 7 -21 14 -7 14 6 0 13 -4 16 -10z m120
-13 c16 -4 14 -5 -6 -6 -17 -1 -29 5 -33 15 -5 13 -3 14 6 6 7 -5 22 -12 33
-15z m1565 13 c0 -5 -2 -10 -4 -10 -3 0 -8 5 -11 10 -3 6 -1 10 4 10 6 0 11
-4 11 -10z m-25 -20 c1 -17 -19 -40 -33 -40 -14 0 -21 48 -8 54 20 8 41 1 41
-14z m462 3 c2 -6 -7 -23 -20 -39 -26 -30 -47 -26 -47 9 0 20 0 20 14 1 12
-15 17 -17 27 -6 7 6 9 12 4 12 -6 0 -3 5 5 10 13 9 13 11 0 21 -12 9 -12 10
-1 7 8 -3 16 -9 18 -15z m-2560 1 c-3 -3 -12 -4 -19 -1 -8 3 -5 6 6 6 11 1 17
-2 13 -5z m448 -4 c17 -7 15 -9 -12 -9 -17 -1 -35 4 -38 9 -7 12 22 12 50 0z
m-871 -26 c3 -8 2 -12 -4 -9 -6 3 -10 10 -10 16 0 14 7 11 14 -7z m969 9 c-7
-2 -19 -2 -25 0 -7 3 -2 5 12 5 14 0 19 -2 13 -5z m1716 -2 c23 -15 -14 -60
-50 -59 -36 1 -37 20 -3 47 30 23 33 24 53 12z m760 -13 c18 -18 22 -19 38 -7
16 13 17 12 4 -3 -7 -10 -20 -18 -28 -18 -12 0 -14 -7 -9 -32 4 -24 3 -29 -4
-18 -5 8 -10 25 -10 37 0 12 -7 28 -15 37 -8 8 -15 17 -15 20 0 13 20 5 39
-16z m-2324 -28 c-4 -12 -9 -19 -12 -17 -3 3 -2 15 2 27 4 12 9 19 12 17 3 -3
2 -15 -2 -27z m1601 -8 c-18 -16 -18 -16 -6 6 6 13 14 21 18 18 3 -4 -2 -14
-12 -24z m-1466 -58 c0 -8 -4 -14 -8 -14 -18 0 -28 22 -24 51 l4 30 14 -27 c8
-14 14 -33 14 -40z m-313 50 c-3 -3 -12 -4 -19 -1 -8 3 -5 6 6 6 11 1 17 -2
13 -5z m1167 -26 c5 -20 2 -27 -11 -31 -10 -2 5 -7 32 -11 101 -15 105 -16
104 -39 -1 -12 2 -37 6 -54 7 -33 7 -33 -31 -34 -22 -1 -44 -1 -50 0 -6 1 -11
-5 -11 -12 0 -10 12 -13 47 -9 l47 4 1 -38 c1 -21 -4 -42 -11 -46 -9 -6 -9 -8
1 -8 8 0 12 -18 11 -57 -1 -32 -3 -50 -6 -40 -2 9 -12 17 -21 17 -14 0 -15 2
-3 9 19 12 22 51 4 44 -8 -3 -12 -12 -9 -19 3 -8 1 -14 -4 -14 -6 0 -10 7 -10
15 0 8 -7 15 -15 15 -8 0 -12 6 -9 14 3 7 -2 16 -11 20 -9 3 -14 10 -11 15 3
5 -1 11 -9 14 -8 4 -18 21 -23 39 -7 27 -14 34 -46 40 -45 9 -82 33 -67 42 14
9 86 10 141 2 l45 -6 -30 15 c-29 14 -29 14 -5 15 47 0 5 19 -75 34 -44 8 -68
15 -53 15 31 1 45 16 23 25 -8 3 -15 13 -15 22 0 12 7 15 24 12 16 -3 27 0 31
10 7 18 10 15 19 -20z m-758 7 c-3 -9 0 -15 9 -15 10 0 15 -10 15 -27 0 -25
-1 -25 -18 -10 -10 10 -24 17 -31 17 -9 0 -7 5 3 16 9 8 16 20 16 25 0 5 3 9
6 9 3 0 4 -7 0 -15z m889 -6 c-7 -10 -35 -1 -35 11 0 5 9 6 20 3 11 -3 17 -9
15 -14z m735 -40 c0 -16 -20 -9 -27 9 -4 9 -11 20 -17 25 -8 5 -6 10 3 16 11
7 18 3 28 -16 7 -14 13 -29 13 -34z m-1535 41 c3 -5 2 -10 -4 -10 -5 0 -13 5
-16 10 -3 6 -2 10 4 10 5 0 13 -4 16 -10z m352 4 c-3 -3 -12 -4 -19 -1 -8 3
-5 6 6 6 11 1 17 -2 13 -5z m178 -3 c3 -5 1 -12 -5 -16 -5 -3 -10 1 -10 9 0
18 6 21 15 7z m202 -8 c3 -7 -3 -9 -16 -6 -12 3 -21 10 -21 15 0 13 32 6 37
-9z m250 -5 c-3 -8 -6 -5 -6 6 -1 11 2 17 5 13 3 -3 4 -12 1 -19z m233 -3
c-13 -14 -26 -23 -28 -20 -7 7 29 45 41 45 6 0 0 -11 -13 -25z m494 9 c5 -14
4 -15 -9 -4 -17 14 -19 20 -6 20 5 0 12 -7 15 -16z m-916 -22 c2 -7 -6 -12
-17 -12 -12 0 -21 2 -21 4 0 2 -3 12 -6 20 -5 13 -2 15 17 8 13 -5 25 -14 27
-20z m552 8 c21 -21 26 -40 11 -40 -5 0 -14 6 -21 14 -6 8 -17 13 -24 10 -8
-3 -16 4 -19 15 -7 28 26 28 53 1z m-1644 -27 c-11 -11 -17 4 -9 23 7 18 8 18
11 1 2 -10 1 -21 -2 -24z m25 10 c-8 -15 -10 -15 -11 -2 0 17 10 32 18 25 2
-3 -1 -13 -7 -23z m760 16 c24 -12 16 -29 -15 -29 -30 0 -38 9 -23 26 15 16
14 16 38 3z m935 -14 c3 -14 4 -35 1 -46 -6 -21 -3 -23 46 -33 15 -4 25 -11
22 -16 -3 -6 1 -10 9 -10 24 0 8 -27 -24 -40 -16 -7 -33 -9 -38 -6 -24 14 -39
-7 -45 -59 -5 -50 -31 -104 -50 -105 -5 0 -5 4 -2 10 3 5 -1 21 -10 34 -19 29
-16 126 5 151 17 21 41 19 47 -4 4 -16 9 -17 33 -8 l27 10 -25 24 c-19 18 -33
22 -52 18 -24 -6 -24 -6 -5 9 11 8 25 16 32 16 7 0 9 13 6 40 -6 45 12 57 23
15z m151 -12 c-11 -10 -26 8 -20 23 5 15 7 14 15 -1 6 -9 7 -19 5 -22z m-630
15 c17 -23 9 -43 -16 -40 -15 1 -24 -4 -28 -17 -5 -20 -31 -36 -42 -26 -3 3 1
10 9 15 10 7 11 10 3 10 -7 0 -13 7 -13 15 0 8 9 15 20 15 11 0 20 5 20 11 0
6 -7 9 -15 5 -8 -3 -15 -1 -15 3 0 21 63 28 77 9z m1102 -17 c9 -16 7 -19 -14
-17 -28 1 -31 6 -13 24 15 15 15 15 27 -7z m-2144 -1 c-3 -5 -2 -10 3 -10 6 0
12 -7 16 -15 3 -9 0 -15 -10 -15 -8 0 -13 4 -9 9 3 5 1 12 -5 16 -10 6 -5 25
6 25 3 0 2 -4 -1 -10z m-76 -14 c10 -12 8 -13 -8 -9 -12 3 -21 9 -21 14 0 14
16 11 29 -5z m1641 -6 c14 -27 29 -25 23 3 l-6 22 23 -21 c28 -27 19 -45 -17
-35 -27 7 -65 51 -45 51 6 0 16 -9 22 -20z m180 -26 c0 -37 -20 -48 -21 -11
l0 22 -9 -21 c-9 -24 -28 -39 -36 -31 -12 12 44 88 59 80 4 -2 7 -20 7 -39z
m-1906 20 c3 -8 2 -12 -4 -9 -6 3 -10 10 -10 16 0 14 7 11 14 -7z m852 -4 c31
-12 33 -34 2 -24 -13 5 -37 8 -55 8 -18 -1 -30 3 -27 8 3 4 -2 8 -11 8 -9 0
-13 -4 -10 -10 3 -5 1 -10 -5 -10 -13 0 -40 24 -40 36 0 8 114 -4 146 -16z
m744 10 c0 -6 -7 -24 -15 -40 -27 -53 -48 -30 -23 25 11 25 38 35 38 15z
m-1331 -28 c-10 -2 -26 2 -36 8 -16 10 -16 11 5 7 12 -3 22 -1 22 4 0 6 6 4
14 -3 12 -11 11 -13 -5 -16z m1223 -4 c-6 -6 -12 -6 -17 3 -5 8 -4 10 3 5 7
-4 12 0 13 11 0 12 2 13 6 5 3 -8 1 -18 -5 -24z m-1417 8 c12 -12 12 -15 1
-19 -8 -3 -16 2 -19 14 -6 23 -1 24 18 5z m869 -2 c5 -12 2 -15 -10 -10 -8 3
-18 6 -20 6 -3 0 -2 5 1 10 9 15 22 12 29 -6z m-253 -22 c-7 -2 -18 1 -23 6
-8 8 -4 9 13 5 13 -4 18 -8 10 -11z m88 -14 c3 6 12 8 18 4 25 -15 -2 -30 -42
-23 -35 6 -37 8 -17 15 12 4 23 13 23 19 1 7 4 3 6 -7 3 -12 8 -15 12 -8z
m-256 5 c-7 -2 -19 -2 -25 0 -7 3 -2 5 12 5 14 0 19 -2 13 -5z m154 -6 c12 -1
25 -6 30 -10 4 -5 -19 -7 -52 -4 -32 2 -61 9 -63 15 -2 7 8 9 30 6 18 -3 43
-6 55 -7z m486 1 c4 -10 8 -9 16 2 9 13 11 13 11 -2 0 -11 6 -15 20 -11 12 3
20 0 20 -7 0 -7 8 -9 20 -5 27 8 25 -1 -5 -30 -18 -18 -35 -25 -65 -25 -22 0
-40 3 -40 8 0 4 -10 12 -22 17 -13 6 -24 18 -24 28 -2 12 -1 13 3 2 7 -23 22
-18 33 10 10 27 25 33 33 13z m95 5 c-10 -2 -26 -2 -35 0 -10 3 -2 5 17 5 19
0 27 -2 18 -5z m283 -10 c1 -10 0 -29 -1 -42 -1 -16 2 -21 11 -16 9 6 11 2 7
-13 -3 -12 -2 -22 4 -24 5 -2 6 -16 3 -31 -10 -37 -50 -39 -43 -2 4 19 1 25
-13 25 -20 0 -25 15 -9 25 6 3 10 19 10 35 0 16 5 32 10 35 6 4 8 11 5 16 -4
5 -1 9 4 9 6 0 11 -8 12 -17z m-1856 -23 c3 -5 1 -10 -4 -10 -6 0 -11 5 -11
10 0 6 2 10 4 10 3 0 8 -4 11 -10z m140 -12 c17 -3 16 -5 -6 -9 -20 -4 -25 -1
-27 15 0 12 2 16 6 10 4 -7 16 -14 27 -16z m868 5 c-7 -2 -19 -2 -25 0 -7 3
-2 5 12 5 14 0 19 -2 13 -5z m-683 -18 c7 -9 8 -15 2 -15 -5 0 -12 7 -16 15
-3 8 -4 15 -2 15 2 0 9 -7 16 -15z m1474 -1 c4 -9 4 -19 1 -22 -6 -6 -35 18
-35 29 0 16 28 10 34 -7z m-798 -25 c4 -8 0 -9 -15 -4 -14 4 -21 2 -21 -6 0
-7 -3 -10 -6 -6 -9 9 5 27 21 27 8 0 17 -5 21 -11z m-1023 -6 c-7 -2 -21 -2
-30 0 -10 3 -4 5 12 5 17 0 24 -2 18 -5z m517 -3 c0 -5 -5 -10 -11 -10 -5 0
-7 5 -4 10 3 6 8 10 11 10 2 0 4 -4 4 -10z m64 -6 c3 -8 2 -12 -4 -9 -6 3 -10
10 -10 16 0 14 7 11 14 -7z m283 10 c-3 -3 -12 -4 -19 -1 -8 3 -5 6 6 6 11 1
17 -2 13 -5z m-832 -14 c3 -5 1 -10 -4 -10 -6 0 -11 5 -11 10 0 6 2 10 4 10 3
0 8 -4 11 -10z m339 4 c9 -3 16 -10 16 -16 0 -5 -4 -6 -10 -3 -5 3 -10 -1 -10
-9 0 -24 -14 -19 -27 9 -12 27 -3 32 31 19z m602 -9 c20 -19 5 -19 -20 0 -11
9 -14 15 -7 15 7 0 19 -7 27 -15z m-273 -15 c3 -11 1 -20 -4 -20 -5 0 -9 9 -9
20 0 11 2 20 4 20 2 0 6 -9 9 -20z m114 -2 c-3 -8 -6 -5 -6 6 -1 11 2 17 5 13
3 -3 4 -12 1 -19z m223 -5 c13 3 19 2 14 -2 -5 -5 -22 -11 -39 -14 -16 -4 -25
-4 -18 -1 7 3 9 13 6 22 -4 14 -3 14 5 3 6 -8 19 -12 32 -8z m1518 -10 c26 3
60 10 75 16 36 14 37 14 37 -4 0 -9 -8 -18 -17 -21 -10 -3 -27 -10 -38 -14
-11 -5 -38 -11 -60 -13 -45 -4 -66 13 -57 47 6 19 7 19 10 3 3 -16 11 -18 50
-14z m-244 -33 c-13 -27 -24 -57 -24 -67 0 -9 -3 -14 -6 -10 -9 9 5 59 26 95
29 48 31 39 4 -18z m147 10 c-2 -8 -6 -40 -9 -70 -2 -31 -10 -58 -18 -63 -8
-4 -14 -16 -14 -26 0 -13 -7 -18 -25 -18 -21 0 -23 2 -11 11 8 6 16 27 18 46
3 33 1 35 -29 35 -30 0 -32 2 -35 41 -2 23 0 40 5 37 4 -2 10 3 13 12 9 22
111 18 105 -5z m-1301 -11 c0 -6 -4 -7 -10 -4 -5 3 -10 11 -10 16 0 6 5 7 10
4 6 -3 10 -11 10 -16z m311 -42 c-11 -29 -41 -35 -41 -9 0 13 6 19 18 18 9 0
16 5 14 12 -1 8 2 11 7 7 6 -3 7 -15 2 -28z m-471 3 c0 -11 -2 -20 -4 -20 -2
0 -6 9 -9 20 -3 11 -1 20 4 20 5 0 9 -9 9 -20z m1321 -11 c-5 -13 -10 -19 -10
-12 -1 15 10 45 15 40 3 -2 0 -15 -5 -28z m-827 -4 c-4 -8 -10 -15 -15 -15 -4
0 -6 7 -3 15 4 8 10 15 15 15 4 0 6 -7 3 -15z m-397 -1 c-3 -3 -12 -4 -19 -1
-8 3 -5 6 6 6 11 1 17 -2 13 -5z m183 -17 c9 -3 5 -6 -11 -6 -16 -1 -26 4 -26
14 0 9 4 11 11 6 6 -4 18 -11 26 -14z m-60 3 c0 -5 -2 -10 -4 -10 -3 0 -8 5
-11 10 -3 6 -1 10 4 10 6 0 11 -4 11 -10z m-103 -6 c-3 -3 -12 -4 -19 -1 -8 3
-5 6 6 6 11 1 17 -2 13 -5z m358 -14 c3 -6 -1 -7 -9 -4 -18 7 -21 14 -7 14 6
0 13 -4 16 -10z m-285 -15 c0 -8 -2 -15 -4 -15 -2 0 -6 7 -10 15 -3 8 -1 15 4
15 6 0 10 -7 10 -15z m65 4 c4 -5 13 -9 21 -9 8 0 12 5 9 10 -10 16 11 12 25
-5 11 -14 6 -15 -49 -13 -56 2 -69 7 -56 19 8 9 45 8 50 -2z m-165 -9 c0 -5
-7 -7 -15 -4 -8 4 -15 8 -15 10 0 2 7 4 15 4 8 0 15 -4 15 -10z m62 -4 c7 4 8
2 4 -5 -9 -13 -26 -5 -25 12 0 9 2 8 6 -1 2 -6 10 -9 15 -6z m258 2 c0 -4 -9
-8 -20 -8 -11 0 -20 4 -20 9 0 6 9 9 20 8 11 -1 20 -5 20 -9z m550 -11 c0 -90
-128 -198 -154 -130 -9 23 75 103 108 103 19 0 26 5 26 20 0 11 5 20 10 20 6
0 10 -6 10 -13z m-1703 -49 c-3 -8 -6 -5 -6 6 -1 11 2 17 5 13 3 -3 4 -12 1
-19z m970 2 c4 -13 3 -13 -6 0 -15 21 -25 5 -11 -19 6 -12 7 -21 1 -21 -10 0
-21 24 -21 47 0 19 32 13 37 -7z m113 4 c0 -8 -4 -12 -10 -9 -5 3 -10 10 -10
16 0 5 5 9 10 9 6 0 10 -7 10 -16z m703 -17 c-4 -7 -8 -24 -9 -39 -1 -15 -5
-35 -8 -45 -6 -15 -8 -15 -16 -3 -7 11 -10 7 -10 -15 0 -36 -27 -78 -42 -69
-7 5 -9 1 -5 -9 7 -20 -26 -42 -50 -33 -16 6 -16 8 1 120 1 11 8 22 14 24 7 2
12 9 12 16 0 15 54 56 74 56 8 0 18 5 21 10 4 6 11 8 16 4 5 -3 6 -11 2 -17z
m88 -77 c-24 -77 -35 -90 -51 -60 -15 28 4 93 38 130 36 39 40 19 13 -70z
m143 54 c3 -8 2 -12 -4 -9 -6 3 -10 10 -10 16 0 14 7 11 14 -7z m-1108 -21
c-10 -10 -19 5 -10 18 6 11 8 11 12 0 2 -7 1 -15 -2 -18z m-925 -6 c-10 -9
-11 -8 -5 6 3 10 9 15 12 12 3 -3 0 -11 -7 -18z m989 9 c0 -11 -19 -15 -25 -6
-3 5 1 10 9 10 9 0 16 -2 16 -4z m1285 -36 c3 -5 1 -10 -4 -10 -6 0 -11 5 -11
10 0 6 2 10 4 10 3 0 8 -4 11 -10z m405 0 c0 -5 -8 -10 -17 -10 -15 0 -16 2
-3 10 19 12 20 12 20 0z m-2585 -10 c3 -5 2 -10 -4 -10 -5 0 -13 5 -16 10 -3
6 -2 10 4 10 5 0 13 -4 16 -10z m52 -6 c-3 -3 -12 -4 -19 -1 -8 3 -5 6 6 6 11
1 17 -2 13 -5z m1491 -31 c-5 -21 -9 -46 -9 -55 0 -18 -53 -78 -69 -78 -5 0
-11 13 -15 29 -9 42 26 107 68 125 17 8 33 15 33 15 1 1 -2 -16 -8 -36z m514
30 c-6 -2 -10 -9 -6 -14 3 -5 -4 -9 -14 -9 -11 0 -22 7 -26 15 -4 12 2 15 27
14 18 0 26 -3 19 -6z m-1202 -35 c0 -16 -3 -19 -8 -10 -5 7 -16 10 -25 6 -21
-8 -67 3 -67 16 0 6 23 10 50 10 45 0 50 -2 50 -22z m1542 -38 c5 0 3 -6 -4
-14 -11 -12 -15 -11 -25 8 -7 11 -12 32 -12 46 -1 23 0 23 15 -7 9 -18 21 -33
26 -33z m-352 36 c0 -2 -7 -6 -15 -10 -8 -3 -15 -1 -15 4 0 6 7 10 15 10 8 0
15 -2 15 -4z m540 -56 c13 -8 13 -10 -2 -10 -9 0 -20 5 -23 10 -8 13 5 13 25
0z m-645 -11 c11 -16 1 -19 -13 -3 -7 8 -8 14 -3 14 5 0 13 -5 16 -11z m-3025
-23 c0 -2 -7 -7 -16 -10 -8 -3 -12 -2 -9 4 6 10 25 14 25 6z m2753 -25 c-6 -3
-15 -16 -22 -28 -16 -31 -82 -63 -131 -63 -33 0 -40 3 -40 20 0 11 -4 20 -10
20 -5 0 -7 6 -4 14 8 20 131 58 165 51 17 -4 30 -1 35 6 6 10 9 10 12 0 2 -7
0 -16 -5 -20z m127 19 c0 -5 -4 -10 -10 -10 -5 0 -10 5 -10 10 0 6 5 10 10 10
6 0 10 -4 10 -10z m515 -10 c3 -5 1 -10 -4 -10 -6 0 -11 5 -11 10 0 6 2 10 4
10 3 0 8 -4 11 -10z m-536 -22 c2 26 21 10 21 -18 0 -22 -4 -28 -15 -24 -8 4
-13 10 -10 14 3 5 1 11 -5 15 -5 3 -10 14 -9 23 0 14 2 13 9 -3 5 -11 9 -14 9
-7z m-1673 -1 c4 -4 -10 -7 -32 -6 -30 0 -34 2 -19 8 22 9 41 8 51 -2z m89 3
c3 -5 -3 -10 -14 -10 -12 0 -21 5 -21 10 0 6 6 10 14 10 8 0 18 -4 21 -10z
m1571 -48 c13 -7 24 -18 24 -26 0 -8 4 -16 10 -18 5 -1 12 -19 16 -38 5 -28 4
-33 -6 -23 -7 6 -19 9 -26 6 -19 -7 -104 64 -104 87 0 10 -4 22 -10 25 -20 12
-10 21 19 17 17 -2 32 1 37 10 7 10 10 8 12 -8 2 -12 14 -26 28 -32z m239 23
c14 -14 25 -28 25 -31 0 -7 -58 34 -65 46 -12 20 15 9 40 -15z m342 -10 c0 -8
-3 -13 -5 -10 -3 3 -11 -3 -18 -13 -12 -15 -13 -15 -14 9 0 14 3 28 6 32 10 9
31 -3 31 -18z m-82 5 c-3 -5 -12 -10 -18 -10 -7 0 -6 4 3 10 19 12 23 12 15 0z
m-2105 -26 c0 -8 -4 -12 -10 -9 -5 3 -10 10 -10 16 0 5 5 9 10 9 6 0 10 -7 10
-16z m1837 -9 c23 -14 43 -30 43 -36 0 -5 10 -3 23 5 20 13 24 13 46 -5 16
-13 19 -19 8 -19 -8 0 -17 -7 -21 -15 -6 -17 -42 -20 -51 -5 -3 6 -15 10 -26
10 -30 0 -66 28 -78 61 -13 37 -2 37 56 4z m-347 -5 c0 -5 -1 -12 -2 -15 -2
-2 32 -27 75 -55 42 -27 77 -56 78 -63 0 -7 3 -7 7 3 12 26 61 98 71 104 5 3
9 -9 8 -29 -1 -19 -5 -35 -10 -35 -4 0 -5 -4 -2 -10 7 -11 -20 -74 -38 -89
-19 -15 -41 -17 -43 -3 -1 6 -2 21 -3 33 -1 15 -6 19 -17 15 -9 -3 -33 4 -53
16 -41 25 -52 38 -44 52 3 5 1 6 -5 2 -6 -3 -19 7 -28 24 -10 16 -22 30 -27
30 -5 0 -4 7 3 15 14 17 30 20 30 5z m170 0 c0 -5 -4 -10 -10 -10 -5 0 -10 5
-10 10 0 6 5 10 10 10 6 0 10 -4 10 -10z m550 -22 c0 -6 -6 -5 -15 2 -8 7 -15
14 -15 16 0 2 7 1 15 -2 8 -4 15 -11 15 -16z m-869 -69 c61 -30 59 -79 -2 -79
-41 0 -129 37 -156 66 -29 31 -29 32 5 37 44 7 114 -3 153 -24z m770 14 c21
-9 40 -25 43 -36 4 -16 11 -19 40 -15 35 4 36 3 36 -32 0 -40 13 -66 28 -56 6
3 11 19 11 34 0 15 3 39 8 54 8 26 9 26 42 12 22 -9 31 -19 28 -29 -4 -8 -2
-17 4 -20 5 -4 7 -11 4 -16 -4 -5 1 -9 9 -9 9 0 16 -4 16 -10 0 -14 -28 -26
-90 -40 -47 -10 -64 -10 -113 5 -31 9 -70 27 -85 40 -42 35 -94 112 -81 120 6
4 13 -2 16 -14 3 -12 12 -21 19 -21 10 0 13 7 8 25 -7 30 4 32 57 8z m-1844 1
c-3 -3 -12 -4 -19 -1 -8 3 -5 6 6 6 11 1 17 -2 13 -5z m1184 -37 c46 -30 81
-100 75 -152 -2 -22 -5 -41 -5 -41 -1 -1 -16 12 -35 30 -20 18 -42 52 -51 81
-10 28 -26 62 -37 78 -19 27 -19 27 0 27 10 0 34 -10 53 -23z m449 -72 c0 -42
-3 -55 -15 -55 -19 0 -21 61 -3 90 7 11 14 20 15 20 2 0 3 -25 3 -55z m76 -1
c-15 -14 -31 -23 -34 -20 -7 8 19 37 28 31 5 -3 11 -1 15 5 3 5 9 10 13 10 4
0 -6 -12 -22 -26z m-222 0 c19 -19 22 -48 4 -38 -23 13 -48 37 -48 46 0 14 28
9 44 -8z m-2097 -10 c-3 -3 -12 -4 -19 -1 -8 3 -5 6 6 6 11 1 17 -2 13 -5z
m2033 -23 c0 -18 -70 -65 -81 -54 -6 6 4 16 31 28 22 10 40 22 40 27 0 4 2 8
5 8 3 0 5 -4 5 -9z m275 -1 c-4 -6 1 -23 10 -38 l17 -27 -22 22 c-20 19 -23
53 -5 53 4 0 3 -5 0 -10z m-95 -88 c0 -20 -20 -3 -31 25 -14 37 2 53 17 18 7
-17 13 -36 14 -43z m-70 50 c0 -8 -14 -16 -63 -40 -4 -2 -4 3 -1 11 8 22 64
47 64 29z m1 -49 c11 -10 25 -27 31 -38 11 -20 11 -20 -11 -1 -21 19 -21 19
-21 -2 0 -26 -15 -29 -24 -6 -7 19 -8 64 -1 64 3 0 14 -8 26 -17z m119 7 c-12
-8 -12 -10 -1 -10 8 0 12 -2 10 -5 -3 -2 -15 -2 -27 2 -27 7 -19 23 11 23 18
0 19 -2 7 -10z m-230 -25 c0 -8 -4 -15 -10 -15 -11 0 -76 -66 -103 -104 -22
-32 -34 -33 -42 -5 -11 34 13 92 48 117 38 26 107 31 107 7z m-774 -6 c8 -14
-14 -29 -43 -29 -22 0 -31 19 -16 33 10 11 51 8 59 -4z m1214 -112 c5 -15 5
-25 0 -22 -9 5 -40 92 -40 109 1 13 28 -47 40 -87z m-1306 54 c3 -5 -1 -11 -9
-14 -9 -4 -12 -1 -8 9 6 16 10 17 17 5z m66 -1 c0 -5 -5 -10 -11 -10 -5 0 -7
5 -4 10 3 6 8 10 11 10 2 0 4 -4 4 -10z m31 1 c-23 -15 -2 -31 32 -25 24 4 28
3 17 -5 -8 -6 -30 -11 -49 -11 -26 0 -32 3 -27 16 3 9 6 20 6 25 0 5 8 9 18 9
13 0 14 -2 3 -9z m52 -8 c-7 -2 -19 -2 -25 0 -7 3 -2 5 12 5 14 0 19 -2 13 -5z
m902 -13 c23 -26 8 -26 -25 0 -18 14 -21 20 -9 20 9 0 24 -9 34 -20z m-1420 0
c-3 -5 -12 -10 -18 -10 -7 0 -6 4 3 10 19 12 23 12 15 0z m100 0 c4 -7 -10 -9
-38 -8 -25 2 -43 6 -40 11 6 11 71 9 78 -3z m-282 -7 c-7 -2 -19 -2 -25 0 -7
3 -2 5 12 5 14 0 19 -2 13 -5z m27 -8 c0 -8 -7 -15 -15 -15 -13 0 -14 3 -3 15
16 18 18 18 18 0z m95 4 c-28 -11 -85 -11 -85 0 0 6 24 10 53 9 36 0 46 -3 32
-9z m1308 -27 c23 -21 60 -51 82 -67 74 -55 145 -122 145 -138 0 -4 5 -5 10
-2 6 4 26 -9 45 -28 19 -19 35 -32 35 -28 0 4 -20 27 -45 51 -67 66 -45 65 27
-1 36 -34 95 -75 143 -99 44 -22 123 -63 175 -91 91 -48 93 -50 50 -44 -25 4
-58 10 -75 15 -27 8 -86 16 -140 20 -17 2 -16 3 5 9 23 7 21 8 -17 15 -24 4
-43 12 -43 17 0 4 -6 6 -12 4 -7 -2 -29 0 -48 5 l-35 10 38 -5 c20 -2 37 -2
37 0 0 2 -29 23 -65 46 -62 40 -87 61 -45 39 11 -6 20 -7 20 -1 0 14 -30 22
-54 15 -21 -6 -21 -6 -2 9 19 14 18 15 -20 36 -66 36 -173 105 -191 124 -10
10 10 0 44 -23 34 -22 71 -43 83 -45 11 -2 26 -7 33 -10 6 -4 -6 10 -27 29
-39 36 -64 47 -50 24 4 -8 3 -10 -2 -5 -5 5 -9 14 -9 20 0 5 -6 12 -14 15 -9
3 -11 0 -6 -8 11 -17 -107 63 -125 86 -14 16 -13 16 10 4 l25 -13 -24 27 c-37
40 -6 31 42 -12z m-1700 21 c-7 -2 -19 -2 -25 0 -7 3 -2 5 12 5 14 0 19 -2 13
-5z m842 -4 c-4 -5 5 -9 19 -9 14 0 26 -5 26 -11 0 -5 4 -7 10 -4 5 3 18 1 27
-4 16 -9 16 -11 -4 -12 -80 -7 -183 8 -183 26 0 17 9 20 65 22 26 1 43 -3 40
-8z m293 -2 c-17 -13 -34 -62 -30 -84 4 -20 -26 -15 -36 5 -5 9 -7 23 -4 31 3
8 0 11 -7 7 -6 -4 -11 -1 -12 6 0 7 -4 4 -9 -7 -5 -11 -9 -14 -9 -7 -1 6 -13
12 -27 12 -16 0 -23 -4 -18 -12 4 -7 3 -8 -4 -4 -28 17 12 44 52 37 6 -1 19 2
30 8 18 9 47 16 81 19 6 1 2 -4 -7 -11z m-885 -4 c-7 -2 -19 -2 -25 0 -7 3 -2
5 12 5 14 0 19 -2 13 -5z m244 1 c-3 -3 -12 -4 -19 -1 -8 3 -5 6 6 6 11 1 17
-2 13 -5z m690 -16 c-3 -8 -6 -5 -6 6 -1 11 2 17 5 13 3 -3 4 -12 1 -19z m656
-2 c15 -14 36 -27 47 -31 20 -6 28 -25 11 -25 -9 0 -101 68 -101 75 0 12 19 3
43 -19z m-393 5 c0 -5 3 -18 6 -28 6 -14 4 -16 -6 -6 -7 6 -19 9 -26 6 -16 -6
-17 -2 -8 21 7 17 34 22 34 7z m163 -38 c-7 -2 -19 -2 -25 0 -7 3 -2 5 12 5
14 0 19 -2 13 -5z m276 -62 c17 -16 31 -34 31 -40 0 -5 -23 12 -52 39 -28 27
-55 47 -58 45 -4 -2 -7 2 -7 10 0 16 33 -4 86 -54z m201 23 c47 -20 94 -43
105 -51 22 -16 20 -16 -42 11 -55 23 -183 88 -163 82 8 -2 53 -21 100 -42z
m-420 26 c18 -12 2 -12 -25 0 -13 6 -15 9 -5 9 8 0 22 -4 30 -9z m-3202 -7
c-10 -2 -26 -2 -35 0 -10 3 -2 5 17 5 19 0 27 -2 18 -5z m2902 -17 c0 -18 -38
-46 -62 -46 -27 0 -22 23 10 42 33 21 52 23 52 4z m820 -17 c15 -28 5 -23 -15
7 -9 15 -12 23 -6 20 6 -4 16 -16 21 -27z m66 -21 c4 -7 -9 1 -29 16 -20 16
-37 30 -37 33 0 7 58 -36 66 -49z m-646 7 c0 -7 15 -35 33 -61 57 -86 98 -156
94 -161 -3 -2 -24 23 -47 56 -24 34 -45 61 -47 61 -2 0 -1 -5 3 -12 4 -7 3 -8
-5 -4 -6 4 -9 11 -6 16 3 5 -2 25 -12 44 -10 23 -19 32 -24 25 -4 -7 -7 -2 -6
12 0 13 -4 33 -8 44 -8 18 -7 19 8 6 9 -7 17 -19 17 -26z m315 19 c20 -8 35
-17 32 -20 -3 -3 -22 4 -44 15 -46 24 -40 27 12 5z m-2948 0 c-3 -3 -12 -4
-19 -1 -8 3 -5 6 6 6 11 1 17 -2 13 -5z m308 -4 c-3 -5 -10 -10 -16 -10 -5 0
-9 5 -9 10 0 6 7 10 16 10 8 0 12 -4 9 -10z m1221 -5 c-8 -8 -18 -15 -22 -15
-3 0 -1 7 6 15 7 8 17 15 22 15 5 0 3 -7 -6 -15z m917 8 c-7 -2 -21 -2 -30 0
-10 3 -4 5 12 5 17 0 24 -2 18 -5z m577 -19 c0 -2 -9 0 -20 6 -11 6 -20 13
-20 16 0 2 9 0 20 -6 11 -6 20 -13 20 -16z m-3625 6 c-3 -5 -10 -10 -16 -10
-5 0 -9 5 -9 10 0 6 7 10 16 10 8 0 12 -4 9 -10z m2495 -7 c2 -2 -13 -3 -34
-1 -20 1 -40 6 -43 11 -5 8 67 -1 77 -10z m-2630 -3 c12 -8 10 -9 -7 -7 -12 2
-26 6 -29 10 -11 11 19 8 36 -3z m1553 3 c-7 -2 -19 -2 -25 0 -7 3 -2 5 12 5
14 0 19 -2 13 -5z m775 0 c-10 -2 -28 -2 -40 0 -13 2 -5 4 17 4 22 1 32 -1 23
-4z m503 -2 c-11 -7 -4 -10 25 -13 l39 -3 -35 -17 -35 -18 38 0 c42 0 46 -8
17 -33 -25 -21 -30 -21 -66 -2 -16 8 -40 15 -54 16 -23 0 -23 1 -5 8 l20 8
-20 5 c-13 4 -8 6 15 7 l35 2 -29 15 c-35 19 -20 34 34 34 25 0 31 -3 21 -9z
m96 3 c-3 -3 -12 -4 -19 -1 -8 3 -5 6 6 6 11 1 17 -2 13 -5z m-407 -19 c0 -9
-9 -15 -25 -15 -16 0 -25 6 -25 15 0 9 9 15 25 15 16 0 25 -6 25 -15z m607
-32 c-3 -10 -5 -2 -5 17 0 19 2 27 5 18 2 -10 2 -26 0 -35z m748 27 c17 -5 50
-12 75 -16 34 -5 40 -9 25 -14 -15 -5 -9 -8 24 -14 24 -4 46 -5 48 -3 2 3 -11
14 -29 26 -43 27 -30 27 17 0 45 -27 30 -41 -35 -34 -35 4 -29 1 26 -13 79
-20 187 -62 180 -69 -3 -3 -50 9 -106 26 -59 19 -110 29 -122 25 -13 -4 -18
-2 -14 4 15 25 -93 40 -168 23 -21 -5 -35 -6 -30 -2 17 16 77 31 123 32 59 1
48 4 -68 20 -67 10 -88 15 -70 20 25 7 74 3 124 -11z m-4080 -10 c10 -11 16
-20 13 -20 -3 0 -13 9 -23 20 -10 11 -16 20 -13 20 3 0 13 -9 23 -20z m2160
10 c-3 -5 -13 -10 -21 -10 -8 0 -12 5 -9 10 3 6 13 10 21 10 8 0 12 -4 9 -10z
m487 -9 c-6 -4 -29 -5 -49 -2 l-38 5 45 6 c49 6 61 3 42 -9z m1768 -16 c0 -5
-5 -3 -10 5 -5 8 -10 20 -10 25 0 6 5 3 10 -5 5 -8 10 -19 10 -25z m-4353 9
c-3 -3 -12 -4 -19 -1 -8 3 -5 6 6 6 11 1 17 -2 13 -5z m2873 -4 c0 -12 -8 -12
-35 0 -18 8 -17 9 8 9 15 1 27 -3 27 -9z m-337 -17 c-7 -2 -19 -2 -25 0 -7 3
-2 5 12 5 14 0 19 -2 13 -5z m1745 -30 c20 -15 42 -31 47 -36 15 -14 -47 22
-76 44 -38 29 -12 22 29 -8z m-4303 -1 c-3 -3 -11 0 -18 7 -9 10 -8 11 6 5 10
-3 15 -9 12 -12z m3142 12 c-3 -3 -12 -4 -19 -1 -8 3 -5 6 6 6 11 1 17 -2 13
-5z m-624 -11 c-7 -2 -19 -2 -25 0 -7 3 -2 5 12 5 14 0 19 -2 13 -5z m874 -35
c-3 -8 -6 -5 -6 6 -1 11 2 17 5 13 3 -3 4 -12 1 -19z m-27 4 c0 -10 -50 -35
-57 -28 -3 2 8 11 24 20 34 18 33 18 33 8z m-2824 -21 c-4 -5 0 -12 6 -14 7
-3 2 -6 -11 -6 -20 -1 -21 1 -11 14 14 16 25 21 16 6z m208 -4 c17 -12 14 -14
-25 -14 -24 0 -34 2 -21 4 12 2 20 9 17 14 -9 13 8 11 29 -4z m43 7 c-3 -3
-12 -4 -19 -1 -8 3 -5 6 6 6 11 1 17 -2 13 -5z m2300 -26 c-3 -7 -5 -2 -5 12
0 14 2 19 5 13 2 -7 2 -19 0 -25z m150 26 c-3 -3 -12 -4 -19 -1 -8 3 -5 6 6 6
11 1 17 -2 13 -5z m-2587 -14 c0 -5 -5 -10 -11 -10 -5 0 -7 5 -4 10 3 6 8 10
11 10 2 0 4 -4 4 -10z m400 1 c0 -6 15 -12 33 -14 17 -2 4 -4 -30 -4 -35 0
-63 4 -63 9 0 5 -10 6 -22 3 -18 -5 -20 -4 -8 4 19 13 90 14 90 2z m218 -3
c-5 -14 -98 -24 -125 -14 -30 12 -1 23 63 25 51 2 65 -1 62 -11z m-648 -8 c0
-5 -2 -10 -4 -10 -3 0 -8 5 -11 10 -3 6 -1 10 4 10 6 0 11 -4 11 -10z m203 3
c-7 -2 -19 -2 -25 0 -7 3 -2 5 12 5 14 0 19 -2 13 -5z m492 -3 c-27 -12 -35
-12 -35 0 0 6 12 10 28 9 24 0 25 -1 7 -9z m2013 -17 c-10 -2 -26 -2 -35 0
-10 3 -2 5 17 5 19 0 27 -2 18 -5z m-2748 -19 c0 -2 -7 -4 -15 -4 -8 0 -15 4
-15 10 0 5 7 7 15 4 8 -4 15 -8 15 -10z m-43 -9 c2 -5 -10 -10 -27 -10 -31 0
-40 9 -17 18 17 8 40 4 44 -8z m176 -2 c-7 -2 -19 -2 -25 0 -7 3 -2 5 12 5 14
0 19 -2 13 -5z m2480 0 c-7 -2 -21 -2 -30 0 -10 3 -4 5 12 5 17 0 24 -2 18 -5z
m447 -23 c6 -11 9 -20 7 -20 -2 0 -12 9 -22 20 -10 11 -13 20 -7 20 6 0 16 -9
22 -20z m-2943 -5 c0 -8 -4 -12 -9 -9 -5 3 -6 10 -3 15 9 13 12 11 12 -6z
m-174 -2 c-7 -2 -19 -2 -25 0 -7 3 -2 5 12 5 14 0 19 -2 13 -5z m3144 -15 c-3
-8 -6 -5 -6 6 -1 11 2 17 5 13 3 -3 4 -12 1 -19z m-677 -23 c0 -14 -4 -25 -10
-25 -5 0 -10 11 -10 25 0 14 5 25 10 25 6 0 10 -11 10 -25z m-3835 -15 c3 -5
1 -10 -4 -10 -6 0 -11 5 -11 10 0 6 2 10 4 10 3 0 8 -4 11 -10z m3279 -15
c-14 -11 -14 -13 -3 -9 10 3 19 -1 23 -11 3 -9 13 -15 22 -13 9 2 19 -2 21 -9
3 -7 -11 -15 -34 -19 -21 -4 -40 -10 -43 -14 -8 -11 -70 9 -70 23 0 7 14 18
31 26 16 7 28 16 25 19 -6 6 36 31 43 25 3 -2 -4 -10 -15 -18z m591 15 c3 -5
1 -10 -4 -10 -6 0 -11 5 -11 10 0 6 2 10 4 10 3 0 8 -4 11 -10z m705 -46 c0
-7 6 -14 13 -17 6 -2 9 -8 4 -12 -8 -9 -24 9 -53 60 l-17 30 26 -24 c15 -14
27 -30 27 -37z m305 47 c-12 -10 -163 -26 -153 -16 4 4 40 10 80 15 40 4 75 8
78 9 2 0 0 -3 -5 -8z m-1805 -11 c0 -5 -7 -7 -15 -4 -8 4 -15 8 -15 10 0 2 7
4 15 4 8 0 15 -4 15 -10z m1047 -10 c-6 -25 8 -26 23 -2 10 15 11 14 7 -5 -3
-13 0 -21 7 -20 6 1 10 -4 8 -12 -3 -12 0 -12 12 -1 18 14 22 25 6 15 -5 -3
-10 -1 -10 5 0 8 7 9 18 5 9 -4 25 -8 35 -10 42 -9 57 -17 51 -27 -5 -7 -2 -8
6 -3 10 6 8 12 -9 27 -13 10 -19 18 -14 18 11 0 34 -19 51 -41 11 -14 9 -17
-15 -17 -16 0 -34 5 -41 11 -22 17 -62 14 -80 -7 -16 -18 -16 -18 6 -7 13 7
26 10 29 8 2 -3 -5 -8 -16 -12 -12 -3 -18 -11 -15 -17 4 -7 9 -6 14 2 6 9 13
9 28 1 14 -7 23 -8 27 -1 4 6 12 7 18 3 7 -4 18 -8 25 -9 8 -2 17 -6 20 -10 4
-4 -1 -4 -10 -1 -13 5 -18 1 -18 -13 0 -11 -5 -20 -11 -20 -5 0 -7 5 -4 10 7
12 3 12 -19 4 -9 -3 -13 -11 -9 -18 3 -6 2 -8 -2 -3 -5 4 -19 0 -31 -8 -14 -9
-25 -11 -29 -5 -3 6 -15 5 -31 -2 -20 -9 -27 -9 -33 0 -4 7 -15 10 -23 7 -19
-7 -30 -42 -17 -51 5 -3 9 0 9 5 0 16 50 13 56 -3 3 -8 14 -12 27 -9 20 5 21
4 6 -11 -19 -21 -53 -11 -45 13 5 13 4 13 -8 -2 -13 -17 -16 -16 -59 2 -26 11
-49 16 -52 11 -6 -10 -65 -9 -65 1 0 4 7 10 16 13 9 4 14 13 10 21 -5 13 5 20
27 16 4 0 6 2 6 6 -3 20 2 34 11 28 5 -3 7 -12 3 -20 -3 -8 0 -15 7 -15 8 0
11 9 8 25 -3 14 -1 25 4 25 4 0 6 11 4 25 -3 18 0 25 10 25 9 0 12 5 8 12 -5
8 -2 9 10 5 12 -5 22 2 34 23 20 35 26 38 19 10z m-2625 -12 c-7 -7 -33 -13
-57 -12 -35 0 -42 -3 -33 -13 6 -7 7 -13 3 -13 -9 0 -34 31 -35 43 0 4 30 7
67 7 53 0 64 -3 55 -12z m68 -1 c0 -7 -9 -13 -20 -13 -25 0 -26 13 -2 19 9 3
18 5 20 6 1 0 2 -5 2 -12z m637 -4 c-4 -3 -2 -12 4 -19 8 -10 3 -11 -23 -8
-46 7 -58 12 -58 24 0 5 19 10 42 10 23 0 38 -3 35 -7z m873 -3 c0 -5 -7 -10
-16 -10 -8 0 -12 5 -9 10 3 6 10 10 16 10 5 0 9 -4 9 -10z m1953 -7 c-18 -2
-48 -2 -65 0 -18 2 -4 4 32 4 36 0 50 -2 33 -4z m-3716 -9 c-3 -3 -12 -4 -19
-1 -8 3 -5 6 6 6 11 1 17 -2 13 -5z m63 -9 c10 -12 10 -15 -3 -15 -8 0 -17 7
-21 15 -3 8 -2 15 3 15 5 0 14 -7 21 -15z m640 5 c13 -9 13 -10 0 -10 -8 0
-22 5 -30 10 -13 9 -13 10 0 10 8 0 22 -5 30 -10z m2006 -27 c-10 -10 -46 -11
-46 -1 0 4 5 8 10 8 6 0 10 7 10 16 0 14 2 14 16 -1 9 -9 14 -19 10 -22z m220
-10 c-10 -10 -19 5 -10 18 6 11 8 11 12 0 2 -7 1 -15 -2 -18z m671 21 c-3 -3
-12 -4 -19 -1 -8 3 -5 6 6 6 11 1 17 -2 13 -5z m-2882 -14 c3 -5 2 -10 -4 -10
-5 0 -13 5 -16 10 -3 6 -2 10 4 10 5 0 13 -4 16 -10z m2832 4 c-3 -3 -12 -4
-19 -1 -8 3 -5 6 6 6 11 1 17 -2 13 -5z m-492 -21 c4 -12 -1 -24 -14 -34 -11
-9 -17 -20 -13 -24 4 -3 8 -11 8 -16 1 -5 2 -15 3 -21 1 -8 6 -5 12 6 8 13 13
15 19 6 5 -8 11 -7 23 4 18 18 27 20 27 7 0 -8 -32 -24 -52 -26 -3 0 -10 -3
-14 -8 -4 -4 -16 0 -26 10 -17 15 -18 15 -18 -4 0 -24 28 -39 44 -23 5 5 15
10 21 10 5 0 1 -7 -9 -15 -18 -14 -16 -28 5 -31 5 -1 10 -2 12 -3 1 -2 12 -4
23 -6 17 -4 22 0 22 21 0 31 20 47 37 31 10 -10 9 -14 -6 -19 -10 -4 -18 -15
-18 -25 1 -17 2 -17 6 0 5 21 21 21 47 2 15 -11 16 -15 5 -15 -8 0 -20 5 -27
12 -9 9 -12 7 -12 -11 0 -12 -4 -19 -10 -16 -5 3 -7 0 -4 -9 4 -12 0 -14 -20
-10 -31 5 -33 -5 -6 -34 12 -12 17 -22 12 -22 -5 0 -15 6 -21 13 -6 8 -23 12
-41 9 -18 -3 -30 0 -30 7 0 6 -4 11 -8 11 -5 0 -9 -7 -9 -15 0 -8 8 -15 18
-15 9 0 19 -7 23 -15 3 -8 12 -15 20 -15 8 0 18 -4 21 -10 4 -7 -3 -7 -20 0
-33 13 -38 13 -30 0 3 -5 -1 -10 -9 -10 -10 0 -13 -6 -10 -15 4 -8 2 -15 -4
-15 -5 0 -12 11 -14 24 -4 17 -1 23 9 19 7 -3 13 0 13 6 0 19 -28 12 -48 -13
-21 -27 -47 -21 -36 9 5 13 4 16 -4 11 -8 -5 -12 0 -12 13 0 24 -15 28 -27 6
-12 -21 -97 -5 -124 24 -21 22 -39 28 -39 12 0 -5 9 -13 20 -16 11 -3 20 -11
20 -16 0 -15 -22 -10 -39 9 -9 10 -24 21 -34 25 -10 4 -15 12 -12 17 4 6 1 18
-6 26 -10 12 -9 13 5 8 12 -5 16 0 16 17 0 14 -4 19 -8 13 -12 -18 -42 -25
-42 -10 0 8 10 16 23 20 33 9 35 8 39 -16 2 -13 10 -23 18 -23 8 0 15 -5 15
-10 0 -6 -10 -9 -22 -7 -13 1 -23 -2 -23 -8 0 -15 46 -12 60 5 14 16 70 21 70
6 0 -17 -19 -22 -41 -11 -20 11 -20 11 -4 -14 10 -15 22 -23 29 -19 6 4 5 -1
-3 -10 -8 -10 -9 -17 -3 -17 6 0 14 5 17 10 3 6 11 10 16 10 6 0 8 -4 5 -9 -5
-8 23 -26 29 -19 22 29 24 78 4 78 -5 0 -9 12 -9 26 0 14 -4 34 -10 44 -7 13
-5 21 7 31 15 13 16 11 9 -13 -5 -23 -3 -28 11 -29 11 0 13 -3 6 -6 -16 -6
-17 -33 -2 -33 5 0 8 4 4 9 -3 5 -1 13 5 16 8 5 8 11 0 20 -8 9 -6 14 5 19 8
3 15 13 15 21 0 13 6 15 30 10 20 -4 30 -3 30 5 0 6 -6 8 -12 4 -7 -4 -4 2 6
15 11 12 26 19 33 17 18 -7 27 12 13 29 -7 9 -8 15 -2 15 5 0 13 -8 17 -17z
m25 -2 c6 -11 6 -22 1 -25 -5 -3 -11 5 -13 19 -6 30 -2 32 12 6z m-1154 0 c-5
-7 -75 -6 -83 2 -2 3 17 5 42 5 25 1 44 -2 41 -7z m-1076 -5 c0 -11 -19 -15
-25 -6 -3 5 1 10 9 10 9 0 16 -2 16 -4z m37 -2 c-3 -3 -12 -4 -19 -1 -8 3 -5
6 6 6 11 1 17 -2 13 -5z m1785 -13 c-15 -13 -18 -21 -10 -24 7 -3 3 -6 -9 -6
-26 -1 -30 11 -8 29 8 7 15 9 15 4 0 -4 5 -3 12 4 7 7 14 12 18 12 3 -1 -5 -9
-18 -19z m1023 -11 c-3 -5 -16 -10 -28 -9 -21 0 -21 1 -2 9 28 12 37 12 30 0z
m-3712 -7 c-7 -2 -19 -2 -25 0 -7 3 -2 5 12 5 14 0 19 -2 13 -5z m1357 -2 c0
-5 -12 -8 -26 -8 -18 0 -22 2 -13 8 18 11 39 11 39 0z m2293 2 c-7 -2 -21 -2
-30 0 -10 3 -4 5 12 5 17 0 24 -2 18 -5z m134 -25 c-3 -7 -5 -2 -5 12 0 14 2
19 5 13 2 -7 2 -19 0 -25z m-1347 1 c0 -4 -7 -6 -15 -3 -8 4 -15 10 -15 15 0
4 7 6 15 3 8 -4 15 -10 15 -15z m188 -10 c-3 -8 -7 -3 -11 10 -4 17 -3 21 5
13 5 -5 8 -16 6 -23z m547 10 c11 -16 1 -19 -13 -3 -7 8 -8 14 -3 14 5 0 13
-5 16 -11z m-654 -16 c13 -17 13 -17 -6 -3 -11 8 -22 16 -24 17 -2 2 0 3 6 3
6 0 17 -8 24 -17z m-1217 -9 c4 -10 1 -14 -6 -12 -15 5 -23 28 -10 28 5 0 13
-7 16 -16z m36 -14 c0 -5 -2 -10 -4 -10 -3 0 -8 5 -11 10 -3 6 -1 10 4 10 6 0
11 -4 11 -10z m1530 0 c0 -5 -2 -10 -4 -10 -3 0 -8 5 -11 10 -3 6 -1 10 4 10
6 0 11 -4 11 -10z m360 -16 c0 -2 -9 0 -20 6 -11 6 -20 13 -20 16 0 2 9 0 20
-6 11 -6 20 -13 20 -16z m-103 -11 c-4 -3 -2 -11 3 -18 7 -8 5 -12 -5 -12 -8
0 -15 6 -15 12 0 12 10 25 18 25 3 0 2 -3 -1 -7z m-337 -17 c0 -11 -19 -15
-25 -6 -3 5 1 10 9 10 9 0 16 -2 16 -4z m542 -56 c40 -37 40 -52 -2 -30 -16 8
-55 70 -45 70 2 0 23 -18 47 -40z m-727 20 c-3 -5 -12 -10 -18 -10 -7 0 -6 4
3 10 19 12 23 12 15 0z m599 -15 c-4 -8 -10 -15 -15 -15 -4 0 -6 7 -3 15 4 8
10 15 15 15 4 0 6 -7 3 -15z m-804 -5 c-8 -5 -19 -10 -25 -10 -5 0 -3 5 5 10
8 5 20 10 25 10 6 0 3 -5 -5 -10z m510 -6 c0 -2 -9 -4 -20 -4 -11 0 -20 4 -20
9 0 5 9 7 20 4 11 -3 20 -7 20 -9z m-640 1 c0 -8 -52 -26 -58 -20 -3 2 6 9 19
14 28 11 39 13 39 6z m285 -5 c3 -5 18 -10 33 -11 15 0 21 -3 15 -6 -7 -2 -13
-11 -13 -18 0 -7 6 -16 13 -19 6 -3 3 -4 -8 -3 -11 2 -19 9 -17 17 3 14 -15
30 -36 30 -7 0 -10 -4 -7 -10 4 -6 -6 -10 -22 -10 -26 1 -27 2 -10 15 18 13
17 14 -5 18 -15 3 -11 5 14 6 20 0 40 -3 43 -9z m636 -28 c-16 -5 -41 5 -41
17 0 7 10 6 26 -1 15 -7 21 -14 15 -16z m-516 -10 c-3 -3 -11 0 -18 7 -9 10
-8 11 6 5 10 -3 15 -9 12 -12z m-2116 4 c-2 -2 -24 -6 -48 -9 -29 -4 -40 -2
-30 4 13 8 88 14 78 5z m1916 -6 c-3 -5 -12 -10 -18 -10 -7 0 -6 4 3 10 19 12
23 12 15 0z m75 -10 c-6 -11 -13 -20 -16 -20 -2 0 0 9 6 20 6 11 13 20 16 20
2 0 0 -9 -6 -20z m753 -10 c3 -11 3 -20 1 -20 -2 0 -8 9 -14 20 -6 11 -7 20
-2 20 6 0 12 -9 15 -20z m-818 -10 c3 -5 2 -10 -4 -10 -5 0 -13 5 -16 10 -3 6
-2 10 4 10 5 0 13 -4 16 -10z m125 -14 c0 -19 -27 -28 -33 -11 -7 15 1 25 20
25 7 0 13 -6 13 -14z m345 -7 c13 -13 -14 -10 -55 7 l-35 14 40 -6 c22 -3 44
-10 50 -15z m-521 -4 c17 -13 18 -15 3 -15 -9 0 -17 4 -17 9 0 5 -10 12 -22
14 -20 4 -20 4 -3 5 11 1 29 -5 39 -13z m119 -16 c-28 -12 -32 -10 -30 10 1
16 4 17 25 8 22 -10 22 -12 5 -18z m-2308 12 c8 -15 -13 -23 -38 -15 -21 7
-21 7 -2 15 27 10 33 10 40 0z m2408 2 c-7 -2 -19 -2 -25 0 -7 3 -2 5 12 5 14
0 19 -2 13 -5z m34 -15 c-3 -8 -6 -5 -6 6 -1 11 2 17 5 13 3 -3 4 -12 1 -19z
m-17 -19 c0 -4 -7 -6 -15 -3 -8 4 -15 10 -15 15 0 4 7 6 15 3 8 -4 15 -10 15
-15z m-2490 1 c0 -5 -5 -10 -11 -10 -5 0 -7 5 -4 10 3 6 8 10 11 10 2 0 4 -4
4 -10z m1010 6 c0 -3 -4 -8 -10 -11 -5 -3 -10 -1 -10 4 0 6 5 11 10 11 6 0 10
-2 10 -4z m1385 -6 c4 -6 10 -8 15 -5 5 3 11 1 15 -5 4 -6 11 -8 16 -5 5 3 6
0 4 -7 -9 -22 -39 -18 -58 8 -10 13 -13 24 -8 24 5 0 13 -5 16 -10z m164 -38
c9 -7 11 -11 5 -8 -7 3 -15 -2 -18 -11 -12 -29 -27 1 -19 38 5 24 8 29 11 14
2 -11 12 -26 21 -33z m-49 17 c-7 -11 -14 -18 -17 -15 -3 3 0 12 7 21 18 21
23 19 10 -6z m1063 0 c21 -5 42 -7 47 -4 4 3 10 -2 14 -10 7 -19 2 -19 -75 6
-62 20 -100 39 -49 25 14 -4 42 -12 63 -17z m-3643 -9 c-28 -7 -62 -1 -55 9 2
4 21 5 42 2 34 -4 35 -5 13 -11z m2698 4 c25 -17 30 -36 7 -28 -8 4 -13 10
-10 15 3 4 -9 13 -27 18 -21 6 -26 10 -13 10 11 1 31 -6 43 -15z m-251 -30
c-3 -3 -12 -4 -19 -1 -8 3 -5 6 6 6 11 1 17 -2 13 -5z m111 -14 c-14 -22 -33
-26 -43 -10 -3 6 3 10 14 10 11 0 23 5 26 10 3 6 8 10 11 10 2 0 -1 -9 -8 -20z
m957 10 c3 -5 2 -10 -4 -10 -5 0 -13 5 -16 10 -3 6 -2 10 4 10 5 0 13 -4 16
-10z m265 0 c20 -6 21 -8 5 -8 -11 0 -31 4 -45 8 -20 6 -21 8 -5 8 11 0 31 -4
45 -8z m-947 -72 c23 -15 49 -28 58 -28 8 0 28 -13 43 -29 34 -35 81 -40 72
-7 -5 19 -4 19 8 4 7 -10 15 -15 18 -13 3 3 11 -3 19 -12 13 -16 12 -17 -3 -4
-22 16 -23 3 -3 -23 19 -26 19 -56 0 -56 -8 0 -15 -9 -15 -19 0 -30 11 -52 22
-44 7 4 9 -4 6 -20 -3 -15 -1 -24 3 -21 15 9 70 -29 64 -44 -3 -8 3 -16 15
-19 11 -3 20 -9 20 -14 0 -5 -22 2 -50 16 -27 14 -57 25 -67 25 -19 1 -64 30
-46 30 6 0 9 10 6 23 -5 18 -3 20 8 10 7 -7 17 -13 22 -13 5 0 5 5 -1 13 -5 6
-13 27 -17 45 -6 31 -10 34 -40 30 -26 -3 -35 0 -38 14 -4 13 1 18 13 18 24 0
36 19 20 33 -9 9 -15 7 -26 -7 -13 -18 -15 -18 -31 -3 -17 14 -18 14 -18 -6
-1 -12 -4 -35 -9 -51 -6 -25 -5 -28 7 -17 12 9 16 8 21 -4 3 -10 0 -15 -11
-15 -13 0 -14 -3 -5 -12 14 -14 16 -38 3 -38 -9 0 -74 127 -86 170 -4 14 -15
36 -25 50 -10 14 -27 44 -38 68 l-20 42 30 -22 c16 -13 49 -35 71 -50z m947
-9 c0 -21 -19 -29 -45 -18 -11 4 -14 8 -6 8 16 1 -31 41 -48 41 -6 0 -11 7
-11 15 0 8 -8 15 -17 15 -14 0 -15 2 -4 9 19 12 131 -47 131 -70z m-229 37
c-11 -13 -4 -65 16 -126 6 -18 10 -130 4 -130 -2 0 -10 8 -18 18 -13 15 -14
11 -9 -33 5 -36 3 -46 -5 -38 -6 6 -12 32 -13 57 -1 25 1 40 5 34 4 -7 11 -2
19 12 8 15 8 20 1 16 -7 -5 -11 2 -11 16 0 18 2 20 10 8 8 -12 10 -10 10 8 0
13 -4 21 -9 18 -5 -4 -7 2 -5 11 3 10 -2 41 -9 70 -12 43 -12 53 0 57 7 3 13
13 14 23 0 11 3 13 6 5 3 -7 0 -19 -6 -26z m-1281 3 c0 -6 -4 -7 -10 -4 -5 3
-10 11 -10 16 0 6 5 7 10 4 6 -3 10 -11 10 -16z m200 -4 c0 -8 -4 -17 -10 -20
-6 -4 -10 5 -10 20 0 15 4 24 10 20 6 -3 10 -12 10 -20z m231 -2 c-12 -20 -14
-14 -5 12 4 9 9 14 11 11 3 -2 0 -13 -6 -23z m802 20 c-7 -2 -19 -2 -25 0 -7
3 -2 5 12 5 14 0 19 -2 13 -5z m-999 -72 c-6 -6 -24 19 -24 34 1 6 7 1 15 -9
8 -11 12 -22 9 -25z m-317 -98 c-2 -16 -4 -5 -4 22 0 28 2 40 4 28 2 -13 2
-35 0 -50z m1188 -5 c1 -10 10 -27 20 -38 10 -11 14 -20 8 -20 -12 0 -59 69
-74 107 l-10 27 27 -29 c16 -17 29 -38 29 -47z m251 -8 c27 -39 31 -59 9 -40
-8 7 -15 18 -15 25 0 7 -9 24 -21 39 -12 15 -17 31 -12 38 5 9 9 7 11 -7 3
-11 15 -35 28 -55z m-3946 30 c0 -5 -6 -10 -14 -10 -8 0 -18 5 -21 10 -3 6 3
10 14 10 12 0 21 -4 21 -10z m3581 -27 l34 -36 -37 29 c-21 16 -38 32 -38 37
0 12 5 9 41 -30z m-653 20 c-9 -2 -19 -14 -21 -26 -4 -18 -5 -17 -6 6 -1 22 3
27 22 26 15 -1 17 -3 5 -6z m537 -50 c-6 -18 19 -11 27 7 5 11 7 9 7 -8 1 -22
33 -43 72 -47 24 -3 39 -14 39 -30 0 -8 9 -19 21 -25 22 -12 93 -87 96 -101 1
-5 -1 -5 -3 0 -3 6 -12 7 -20 4 -8 -3 -14 0 -14 7 0 10 -3 10 -15 0 -9 -7 -18
-10 -22 -6 -3 3 -1 6 7 6 9 0 10 3 1 14 -9 10 -9 15 -1 18 8 2 4 13 -8 28 -11
14 -24 21 -28 17 -5 -4 -2 -12 6 -17 8 -5 12 -11 9 -14 -3 -3 -29 19 -58 49
-29 30 -60 56 -70 57 -9 1 -25 2 -36 2 -12 1 -21 10 -23 21 -7 49 -13 65 -22
60 -6 -4 -8 -11 -5 -16 12 -18 14 -49 3 -49 -5 0 -8 7 -5 14 4 9 -2 17 -14 21
-19 6 -19 7 3 25 23 19 23 18 40 -3 10 -12 16 -28 13 -34z m474 -53 c1 -12 -1
-12 -8 -2 -6 10 -10 5 -14 -17 -7 -33 0 -61 14 -61 4 0 6 -7 3 -15 -5 -11 -2
-13 11 -9 13 5 15 14 11 40 -4 18 -2 35 4 39 10 6 13 -5 11 -42 -1 -11 3 -24
10 -29 9 -5 11 5 6 44 -4 31 -2 52 3 52 6 0 10 -6 10 -14 0 -7 7 -19 15 -26 8
-7 15 -17 15 -23 0 -6 -7 -2 -15 9 -15 18 -15 17 -11 -13 4 -31 -14 -51 -35
-37 -5 3 -9 -2 -9 -11 0 -9 4 -14 8 -11 5 3 7 -13 5 -34 -2 -22 0 -40 4 -40 4
0 9 -12 9 -26 2 -33 1 -31 -31 46 -15 36 -32 76 -38 90 -6 14 -11 60 -12 103
l0 78 17 -38 c9 -21 17 -45 17 -53z m-540 -13 c0 -21 -1 -21 -9 -2 -12 28 -12
37 0 30 6 -3 10 -16 9 -28z m688 -19 c-3 -8 -6 -5 -6 6 -1 11 2 17 5 13 3 -3
4 -12 1 -19z m-785 5 c-6 -2 -9 -10 -6 -15 4 -7 2 -8 -5 -4 -13 9 -5 26 12 25
9 0 8 -2 -1 -6z m-164 -28 c-3 -3 -9 2 -12 12 -6 14 -5 15 5 6 7 -7 10 -15 7
-18z m590 -21 c-4 -3 -12 5 -18 18 -12 22 -12 22 6 6 10 -10 15 -20 12 -24z
m-458 4 c0 -16 -3 -19 -11 -11 -6 6 -8 16 -5 22 11 17 16 13 16 -11z m838 -53
c0 -16 -2 -15 -8 5 -11 34 -11 60 0 35 5 -11 8 -29 8 -40z m-61 23 c-3 -8 -6
-5 -6 6 -1 11 2 17 5 13 3 -3 4 -12 1 -19z m-690 -20 c13 -17 13 -48 0 -48
-18 0 -46 32 -40 46 6 17 27 18 40 2z m443 -32 c0 -12 -5 -7 -19 24 -11 24
-11 24 3 6 9 -11 16 -24 16 -30z m236 -52 c30 -39 14 -59 -20 -24 -11 13 -14
19 -6 15 13 -7 13 -5 -1 11 -17 21 -23 69 -11 88 4 6 8 -4 10 -23 2 -19 15
-49 28 -67z m-502 71 c3 -8 1 -15 -4 -15 -6 0 -10 7 -10 15 0 8 2 15 4 15 2 0
6 -7 10 -15z m529 -4 c3 -14 1 -18 -9 -14 -15 6 -18 16 -7 26 9 10 10 9 16
-12z m-182 -26 c8 5 11 5 7 0 -4 -4 -3 -14 4 -22 7 -9 0 -8 -20 4 -17 10 -28
21 -25 26 3 5 9 4 13 -3 5 -7 13 -9 21 -5z m-116 -16 c11 -17 -1 -21 -15 -4
-8 9 -8 15 -2 15 6 0 14 -5 17 -11z m323 -34 c-3 -3 -9 2 -12 12 -6 14 -5 15
5 6 7 -7 10 -15 7 -18z m-644 -14 c-2 -3 -12 3 -22 13 -16 17 -16 18 5 5 12
-7 20 -15 17 -18z m-1404 3 c0 -2 -9 -4 -21 -4 -11 0 -18 4 -14 10 5 8 35 3
35 -6z m40 6 c0 -5 -8 -10 -17 -10 -15 0 -16 2 -3 10 19 12 20 12 20 0z m1934
-52 c-9 -14 -23 2 -17 18 4 12 8 13 14 3 4 -7 5 -17 3 -21z m90 17 c3 -8 1
-15 -4 -15 -6 0 -10 7 -10 15 0 8 2 15 4 15 2 0 6 -7 10 -15z m-204 -46 c15
-28 5 -23 -15 7 -9 15 -12 23 -6 20 6 -4 16 -16 21 -27z m144 -2 c-7 -4 -11
-14 -8 -22 9 -22 -4 -18 -16 5 -14 25 7 54 26 36 9 -8 9 -13 -2 -19z m-374
-22 c14 -8 21 -14 15 -14 -5 0 -21 6 -35 14 -14 8 -20 14 -15 14 6 0 21 -6 35
-14z m204 -1 c3 -8 2 -12 -4 -9 -6 3 -10 10 -10 16 0 14 7 11 14 -7z"/>
<path d="M5421 3371 c-8 -5 -16 -19 -18 -30 -3 -21 -2 -21 23 -4 15 9 22 19
15 21 -6 2 -9 8 -5 13 7 11 3 11 -15 0z"/>
<path d="M5587 3373 c-7 -10 -17 -52 -24 -99 -6 -35 22 -69 33 -40 3 9 11 13
17 9 7 -4 8 8 5 35 -3 23 -3 42 1 44 5 2 0 16 -9 31 -10 16 -20 25 -23 20z"/>
<path d="M5460 3322 c0 -14 11 -21 26 -15 21 8 17 23 -6 23 -11 0 -20 -4 -20
-8z"/>
<path d="M5265 3310 c3 -5 8 -10 11 -10 2 0 4 5 4 10 0 6 -5 10 -11 10 -5 0
-7 -4 -4 -10z"/>
<path d="M2925 3110 c3 -5 8 -10 11 -10 2 0 4 5 4 10 0 6 -5 10 -11 10 -5 0
-7 -4 -4 -10z"/>
<path d="M4388 2763 c6 -2 18 -2 25 0 6 3 1 5 -13 5 -14 0 -19 -2 -12 -5z"/>
<path d="M4458 2705 c2 -14 6 -25 8 -25 2 0 4 11 4 25 0 14 -4 25 -9 25 -4 0
-6 -11 -3 -25z"/>
<path d="M4480 2680 c0 -5 9 -10 20 -10 11 0 20 5 20 10 0 6 -9 10 -20 10 -11
0 -20 -4 -20 -10z"/>
<path d="M4704 2725 c-18 -14 -18 -14 3 -15 23 0 39 15 25 24 -5 3 -18 -1 -28
-9z"/>
<path d="M5010 2218 c-12 -22 -12 -22 6 -6 10 10 15 20 12 24 -4 3 -12 -5 -18
-18z"/>
<path d="M4992 2138 c-7 -9 -6 -17 3 -25 15 -14 25 -7 25 19 0 21 -13 24 -28
6z"/>
<path d="M5970 1929 c0 -5 -4 -8 -8 -5 -4 2 -8 -4 -8 -15 0 -24 5 -24 22 -1
16 21 17 32 4 32 -5 0 -10 -5 -10 -11z"/>
<path d="M5375 1601 c19 -22 55 -46 55 -38 0 3 -17 17 -37 33 -31 23 -34 24
-18 5z"/>
<path d="M5760 1326 c0 -7 93 -66 104 -66 6 0 -2 9 -19 21 -39 26 -85 51 -85
45z"/>
<path d="M2958 1373 c7 -3 16 -2 19 1 4 3 -2 6 -13 5 -11 0 -14 -3 -6 -6z"/>
<path d="M5037 1173 c-10 -9 -9 -23 1 -23 5 0 9 7 9 15 0 17 -1 18 -10 8z"/>
<path d="M4968 1163 c-10 -2 -18 -11 -18 -19 0 -20 13 -17 33 6 17 20 16 21
-15 13z"/>
<path d="M4987 1143 c-4 -3 -7 -13 -7 -22 1 -13 3 -13 11 2 11 19 8 33 -4 20z"/>
<path d="M5020 1130 c-8 -5 -10 -10 -5 -10 6 0 5 -4 -1 -8 -17 -11 2 -53 21
-46 8 3 15 10 15 16 0 5 -5 6 -12 2 -7 -4 -8 -3 -4 5 6 9 11 9 21 1 11 -9 14
-6 12 17 -3 30 -22 39 -47 23z"/>
<path d="M4940 1113 c0 -6 5 -15 11 -19 8 -4 7 -9 -2 -15 -9 -6 -4 -8 15 -5
16 3 31 8 35 12 3 3 -2 4 -11 2 -9 -1 -24 6 -32 17 -9 11 -16 15 -16 8z"/>
<path d="M5078 1088 c3 -14 8 -15 23 -8 30 16 30 26 0 26 -22 0 -27 -3 -23
-18z"/>
<path d="M4945 1050 c-3 -5 -1 -10 4 -10 6 0 11 5 11 10 0 6 -2 10 -4 10 -3 0
-8 -4 -11 -10z"/>
<path d="M4898 1043 c6 -2 18 -2 25 0 6 3 1 5 -13 5 -14 0 -19 -2 -12 -5z"/>
<path d="M5157 1047 c-4 -11 0 -13 15 -9 17 4 19 1 13 -17 -4 -12 -2 -21 4
-21 6 0 11 3 12 8 0 4 2 15 4 25 2 9 -1 17 -5 17 -5 0 -15 3 -23 6 -8 3 -17
-1 -20 -9z"/>
<path d="M5152 1008 c-5 -7 -9 -35 -9 -63 2 -39 5 -50 18 -49 9 1 16 -4 16
-10 -1 -36 4 -56 12 -52 5 3 7 15 4 26 -4 17 -2 19 13 13 18 -6 18 -6 2 10
-12 12 -16 28 -13 51 4 30 2 33 -15 29 -12 -3 -20 -14 -21 -27 0 -11 -3 -15
-6 -9 -2 7 1 29 7 49 13 38 9 52 -8 32z"/>
<path d="M5210 1000 c0 -5 -9 -10 -20 -10 -11 0 -20 -5 -20 -11 0 -5 5 -7 10
-4 6 4 18 1 26 -6 9 -7 24 -13 34 -14 17 -1 16 1 -3 27 -22 30 -27 33 -27 18z"/>
<path d="M5291 944 c5 -6 19 -10 29 -7 27 7 25 10 -10 15 -22 3 -27 2 -19 -8z"/>
<path d="M5214 925 c-15 -11 -16 -14 -4 -15 21 0 44 16 33 23 -6 4 -19 0 -29
-8z"/>
<path d="M5275 910 c3 -5 11 -10 16 -10 6 0 7 5 4 10 -3 6 -11 10 -16 10 -6 0
-7 -4 -4 -10z"/>
<path d="M5290 510 c0 -5 5 -10 10 -10 6 0 10 5 10 10 0 6 -4 10 -10 10 -5 0
-10 -4 -10 -10z"/>
<path d="M5392 354 c10 -10 20 -16 22 -13 3 3 -5 11 -17 18 -21 13 -21 12 -5
-5z"/>
<path d="M5754 3352 c-9 -5 -8 -11 2 -20 12 -11 14 -9 14 8 0 22 0 23 -16 12z"/>
<path d="M6085 3070 c3 -5 12 -7 20 -3 21 7 19 13 -6 13 -11 0 -18 -4 -14 -10z"/>
<path d="M5986 2911 c-9 -10 -13 -21 -10 -24 4 -4 1 -13 -6 -22 -10 -12 -10
-15 1 -15 36 0 57 12 51 28 -5 15 -3 15 10 4 14 -11 16 -11 12 5 -3 11 -14 24
-24 30 -14 10 -21 8 -34 -6z"/>
<path d="M5910 2860 c0 -5 5 -10 11 -10 5 0 7 5 4 10 -3 6 -8 10 -11 10 -2 0
-4 -4 -4 -10z"/>
<path d="M5930 2096 c0 -2 7 -7 16 -10 8 -3 12 -2 9 4 -6 10 -25 14 -25 6z"/>
<path d="M6009 973 c21 -38 63 -73 86 -73 14 0 25 5 25 10 0 6 -9 10 -19 10
-11 0 -22 4 -25 9 -3 4 7 6 22 4 l27 -3 -25 11 c-14 7 -42 20 -63 31 -35 17
-37 17 -28 1z"/>
<path d="M5880 975 c0 -2 15 -12 33 -21 17 -9 34 -20 37 -25 3 -4 19 -11 35
-15 29 -6 29 -6 -10 23 -36 27 -95 51 -95 38z"/>
</g>
</svg>
