<?xml version="1.0" encoding="UTF-8"?>
<svg xmlns="http://www.w3.org/2000/svg" xmlns:xlink="http://www.w3.org/1999/xlink" xmlns:svgjs="http://svgjs.com/svgjs" version="1.1" width="512" height="512" x="0" y="0" viewBox="0 0 512 512" style="enable-background:new 0 0 512 512" xml:space="preserve" class="">
  <g>
<circle style="" cx="256" cy="256" r="256" fill="#005e23" data-original="#5f98d1" class=""/>
<path style="" d="M415.813,147.466H95.558l116.019,120.806l33.48,33.9c-18.216-4.164-19.343-6.759-27.415-13.349  c-4.234-3.457-12.414-12.852-24.838-25.54C154.023,223.682,88.217,156.484,88.217,156.484v198.822l8.265,8.265l-0.925,0.963  L242.68,511.657c4.412,0.226,8.852,0.343,13.32,0.343c141.385,0,256-114.615,256-256c0-4.246-0.11-8.466-0.313-12.661  L415.813,147.466z" fill="#00210c" data-original="#3a6da1" class=""/>
<g>
	<polygon style="" points="88.217,156.484 88.217,355.306 185.175,255.493  " fill="#ffffff" data-original="#ffffff" class=""/>
	<polygon style="" points="423.783,156.484 423.783,355.306 327.307,255.895  " fill="#ffffff" data-original="#ffffff" class=""/>
	<path style="" d="M95.558,147.466h320.255L289.948,278.524c-8.958,9.327-21.331,14.599-34.262,14.599   s-25.304-5.272-34.262-14.599L95.558,147.466z" fill="#ffffff" data-original="#ffffff" class=""/>
	<path style="" d="M297.209,285.496c-10.799,11.244-25.933,17.694-41.523,17.694c-15.589,0-30.724-6.448-41.522-17.693   l-21.349-22.23L95.558,364.534h320.255l-97.256-101.267L297.209,285.496z" fill="#ffffff" data-original="#ffffff" class=""/>
</g>
<g>
</g>
<g>
</g>
<g>
</g>
<g>
</g>
<g>
</g>
<g>
</g>
<g>
</g>
<g>
</g>
<g>
</g>
<g>
</g>
<g>
</g>
<g>
</g>
<g>
</g>
<g>
</g>
<g>
</g>
</g>
</svg>
