<?xml version="1.0" encoding="UTF-8"?>
<svg xmlns="http://www.w3.org/2000/svg" xmlns:xlink="http://www.w3.org/1999/xlink" xmlns:svgjs="http://svgjs.com/svgjs" version="1.1" width="512" height="512" x="0" y="0" viewBox="0 0 48 48" style="enable-background:new 0 0 512 512" xml:space="preserve" class="">
  <g>
    <path d="m42.7 11.6c-.1-.1-.1-.1-.1-.1-.1-.1-.1-.1-.2-.1-.1-.1-.3-.1-.4-.2-1.9-.7-7.1.2-14.3 5.8-2.3 1.8-4 3.6-5.1 5-1 1.3-1.4 3-1.1 4.7.2.8-.1 1.6-.7 2.1l-8.2 7.3c-1.3 1.1-1.2 3.1.2 4.1 1.1.8 2.5.6 3.5-.4l26.3-26.3c.5-.5.5-1.3.1-1.9z" fill="#005e23" data-original="#329af0" class=""/>
    <path d="m13.2 7.6c-.4-.4-1-.4-1.4 0s-.4 1.1 0 1.5l5.7 5.7c.5.5.5 1.3 0 1.8s-1.3.5-1.8 0l-5.5-5.5c-.49999-.5-1.29999-.5-1.79999 0s-.5 1.3 0 1.8l5.49999 5.5c.5.5.5 1.3 0 1.8s-1.3.5-1.8 0l-5.69999-5.7c-.4-.4-1.1-.4-1.5 0s-.4 1 0 1.4l6.49999 7.2c1.3 1.5 3.3 2.3 5.3 2.1 2.2-.2 4.3.7 5.6 2.5 4 5.1 9.5 11.4 10.2 12.2 1.2 1.2 3.3 1.2 4.5 0s1.2-3.3 0-4.5c-.8-.8-7.1-6.3-12.2-10.2-1.7-1.3-2.6-3.5-2.5-5.6.2-2-.6-4-2.1-5.3z" fill="#17222c" data-original="#a5d8ff" class=""/>
  </g>
</svg>
